<svg fill="none" height="100%" width="100%" viewBox="0 0 600 600" xmlns:xlink="http://www.w3.org/1999/xlink" xmlns="http://www.w3.org/2000/svg"><defs><filter id="i0"><feComponentTransfer in="SourceGraphic"><feFuncA tableValues="1 0" type="table" /></feComponentTransfer></filter><mask height="20000" width="20000" y="-10000" x="-10000" maskContentUnits="userSpaceOnUse" maskUnits="userSpaceOnUse" style="mask-type: alpha" mask-type="alpha" id="i1"><g filter="url(#i0)"><rect opacity="0" fill="#ffffff" height="600" width="600" y="0" x="0" /><g><g transform="translate(329,329)"><animateTransform repeatCount="indefinite" type="translate" attributeName="transform" dur="1.64s" begin="0s" calcMode="spline" values="329 329; 300 271; 300 271; 329 329; 329 329" keyTimes="0; 0.170732; 0.292683; 0.487805; 1" keySplines="0.167 0.165 0.833 0.835; 0 0 1 1; 0.167 0.188 0.833 0.812; 0 0 1 1" fill="freeze" /><g transform="rotate(-22.2)"><animateTransform repeatCount="indefinite" type="rotate" attributeName="transform" dur="1.64s" begin="0s" calcMode="spline" values="-22.2; -34; -34; -22.2; -22.2" keyTimes="0; 0.170732; 0.292683; 0.487805; 1" keySplines="0.167 0 0.833 1; 0.167 0 0.833 1; 0.167 0 0.833 1; 0 0 1 1" fill="freeze" /><g transform="scale(1,1)"><animateTransform repeatCount="indefinite" type="scale" attributeName="transform" dur="1.64s" begin="0s" calcMode="spline" values="1 1; 1 1; 0.954 0.954; 1 1; 1 1" keyTimes="0; 0.146341; 0.243902; 0.341463; 1" keySplines="0 0 1 1; 0.606 0 0.155 1; 0.845 0 0.394 1; 0 0 1 1" fill="freeze" /><g transform="translate(0,0)"><g transform="matrix(1,0,0,1,-163.5,-195)" id="i2"><g id="i3" transform="matrix(1,0,0,1,157.554,196.842)"><path fill="#91aa9f" d="M-7.269,-74.745C-7.269,-86.952,2.627,-96.846,14.833,-96.846C27.039,-96.846,36.934,-86.952,36.934,-74.745C36.934,-74.745,36.934,-69.634,36.934,-69.634C36.934,-69.634,36.934,-19.475,36.934,-19.475C36.934,-19.475,36.934,-48.123,36.934,-48.123C36.934,-48.123,36.934,-60.492,36.934,-60.492C36.934,-73.585,47.548,-84.198,60.641,-84.198C73.734,-84.198,84.348,-73.585,84.348,-60.492C84.348,-60.492,84.348,-56.794,84.348,-56.794C84.348,-56.794,84.348,-5.428,84.348,-5.428C84.348,-5.428,84.348,-28.915,84.348,-28.915C84.348,-28.915,84.348,-40.788,84.348,-40.788C84.348,-53.154,94.372,-63.18,106.738,-63.18C119.103,-63.18,129.128,-53.154,129.128,-40.788C129.128,-40.788,129.128,-37.768,129.128,-37.768C129.128,-37.768,129.128,57.791,129.128,57.791C129.128,66.571,126.934,73.597,123.421,80.621C123.421,80.621,119.91,87.645,119.91,87.645C119.91,87.645,101.909,117.499,100.591,120.134C99.274,122.768,99.384,123.535,99.384,126.06C99.384,126.06,99.384,166.449,99.384,166.449C99.384,166.449,-37.48,166.449,-37.48,166.449C-37.48,166.449,-37.48,136.048,-37.48,136.048C-37.48,134.841,-37.81,133.414,-39.237,131.439C-40.664,129.463,-118.859,11.246,-120.895,7.854C-129.127,-5.866,-112.554,-36.928,-90.493,-20.684C-64.396,-1.469,-54.602,3.571,-54.383,22.889C-54.383,22.889,-54.383,29.694,-54.383,29.694C-54.383,29.694,-54.383,-141.525,-54.383,-141.525C-54.383,-141.525,-54.366,-142.901,-54.366,-142.901C-54.366,-155.906,-43.823,-166.449,-30.817,-166.449C-17.812,-166.449,-7.269,-155.906,-7.269,-142.901C-7.269,-142.901,-7.269,-141.415,-7.269,-141.415C-7.269,-141.415,-7.269,-19.475,-7.269,-19.475C-7.269,-19.475,-7.269,-70.513,-7.269,-70.513" /></g></g></g></g></g></g></g></g></mask><filter id="i4"><feComponentTransfer in="SourceGraphic"><feFuncA tableValues="1 0" type="table" /></feComponentTransfer></filter><mask height="20000" width="20000" y="-10000" x="-10000" maskContentUnits="userSpaceOnUse" maskUnits="userSpaceOnUse" style="mask-type: alpha" mask-type="alpha" id="i5"><g filter="url(#i4)"><rect opacity="0" fill="#ffffff" height="600" width="600" y="0" x="0" /><g><g transform="translate(329,329)"><animateTransform repeatCount="indefinite" type="translate" attributeName="transform" dur="1.64s" begin="0s" calcMode="spline" values="329 329; 300 271; 300 271; 329 329; 329 329" keyTimes="0; 0.170732; 0.292683; 0.487805; 1" keySplines="0.167 0.165 0.833 0.835; 0 0 1 1; 0.167 0.188 0.833 0.812; 0 0 1 1" fill="freeze" /><g transform="rotate(-22.2)"><animateTransform repeatCount="indefinite" type="rotate" attributeName="transform" dur="1.64s" begin="0s" calcMode="spline" values="-22.2; -34; -34; -22.2; -22.2" keyTimes="0; 0.170732; 0.292683; 0.487805; 1" keySplines="0.167 0 0.833 1; 0.167 0 0.833 1; 0.167 0 0.833 1; 0 0 1 1" fill="freeze" /><g transform="scale(1,1)"><animateTransform repeatCount="indefinite" type="scale" attributeName="transform" dur="1.64s" begin="0s" calcMode="spline" values="1 1; 1 1; 0.954 0.954; 1 1; 1 1" keyTimes="0; 0.146341; 0.243902; 0.341463; 1" keySplines="0 0 1 1; 0.606 0 0.155 1; 0.845 0 0.394 1; 0 0 1 1" fill="freeze" /><g transform="translate(0,0)"><g transform="matrix(1,0,0,1,-163.5,-195)" id="i6"><g id="i3" transform="matrix(1,0,0,1,157.554,196.842)"><path fill="#91aa9f" d="M-7.269,-74.745C-7.269,-86.952,2.627,-96.846,14.833,-96.846C27.039,-96.846,36.934,-86.952,36.934,-74.745C36.934,-74.745,36.934,-69.634,36.934,-69.634C36.934,-69.634,36.934,-19.475,36.934,-19.475C36.934,-19.475,36.934,-48.123,36.934,-48.123C36.934,-48.123,36.934,-60.492,36.934,-60.492C36.934,-73.585,47.548,-84.198,60.641,-84.198C73.734,-84.198,84.348,-73.585,84.348,-60.492C84.348,-60.492,84.348,-56.794,84.348,-56.794C84.348,-56.794,84.348,-5.428,84.348,-5.428C84.348,-5.428,84.348,-28.915,84.348,-28.915C84.348,-28.915,84.348,-40.788,84.348,-40.788C84.348,-53.154,94.372,-63.18,106.738,-63.18C119.103,-63.18,129.128,-53.154,129.128,-40.788C129.128,-40.788,129.128,-37.768,129.128,-37.768C129.128,-37.768,129.128,57.791,129.128,57.791C129.128,66.571,126.934,73.597,123.421,80.621C123.421,80.621,119.91,87.645,119.91,87.645C119.91,87.645,101.909,117.499,100.591,120.134C99.274,122.768,99.384,123.535,99.384,126.06C99.384,126.06,99.384,166.449,99.384,166.449C99.384,166.449,-37.48,166.449,-37.48,166.449C-37.48,166.449,-37.48,136.048,-37.48,136.048C-37.48,134.841,-37.81,133.414,-39.237,131.439C-40.664,129.463,-118.859,11.246,-120.895,7.854C-129.127,-5.866,-112.554,-36.928,-90.493,-20.684C-64.396,-1.469,-54.602,3.571,-54.383,22.889C-54.383,22.889,-54.383,29.694,-54.383,29.694C-54.383,29.694,-54.383,-141.525,-54.383,-141.525C-54.383,-141.525,-54.366,-142.901,-54.366,-142.901C-54.366,-155.906,-43.823,-166.449,-30.817,-166.449C-17.812,-166.449,-7.269,-155.906,-7.269,-142.901C-7.269,-142.901,-7.269,-141.415,-7.269,-141.415C-7.269,-141.415,-7.269,-19.475,-7.269,-19.475C-7.269,-19.475,-7.269,-70.513,-7.269,-70.513" /></g></g></g></g></g></g></g></g></mask></defs><g mask="url(#i1)" visibility="hidden" id="i7"><animate repeatCount="indefinite" begin="0s" calcMode="discrete" dur="1.64s" values="hidden; visible; visible" keyTimes="0; 0.171; 1" attributeName="visibility" /><animate repeatCount="indefinite" attributeName="opacity" dur="1.64s" begin="0s" fill="freeze" values="1; 1; 0; 0" keyTimes="0; 0.121951; 0.609756; 1" keySplines="0 0 1 1; 0.606 0 0.813 1; 0 0 1 1" calcMode="spline" /><g transform="translate(188.942,172.516) rotate(-34)"><g transform="scale(0.357,0.357)"><animateTransform repeatCount="indefinite" type="scale" attributeName="transform" dur="1.64s" begin="0s" calcMode="spline" values="0.357 0.357; 0.357 0.357; 1.555 1.555; 1.555 1.555" keyTimes="0; 0.121951; 0.609756; 1" keySplines="0 0 1 1; 0.606 0 0.394 1; 0 0 1 1" fill="freeze" /><g transform="translate(37,143.75)"><g id="i8" transform="matrix(1,0,0,1,-37,-143.75)"><ellipse ry="64.414" rx="64.414" cy="0" cx="0" stroke-width="40" stroke="#91aa9f"><animate repeatCount="indefinite" attributeName="stroke-width" dur="1.64s" begin="0s" fill="freeze" values="40; 40; 10; 10" keyTimes="0; 0.121951; 0.609756; 1" keySplines="0 0 1 1; 0.606 0 0.394 1; 0 0 1 1" calcMode="spline" /></ellipse></g></g></g></g></g><g display="none" id="i9"><g transform="translate(329,329)"><animateTransform repeatCount="indefinite" type="translate" attributeName="transform" dur="1.64s" begin="0s" calcMode="spline" values="329 329; 300 271; 300 271; 329 329; 329 329" keyTimes="0; 0.170732; 0.292683; 0.487805; 1" keySplines="0.167 0.165 0.833 0.835; 0 0 1 1; 0.167 0.188 0.833 0.812; 0 0 1 1" fill="freeze" /><g transform="rotate(-22.2)"><animateTransform repeatCount="indefinite" type="rotate" attributeName="transform" dur="1.64s" begin="0s" calcMode="spline" values="-22.2; -34; -34; -22.2; -22.2" keyTimes="0; 0.170732; 0.292683; 0.487805; 1" keySplines="0.167 0 0.833 1; 0.167 0 0.833 1; 0.167 0 0.833 1; 0 0 1 1" fill="freeze" /><g transform="scale(1,1)"><animateTransform repeatCount="indefinite" type="scale" attributeName="transform" dur="1.64s" begin="0s" calcMode="spline" values="1 1; 1 1; 0.954 0.954; 1 1; 1 1" keyTimes="0; 0.146341; 0.243902; 0.341463; 1" keySplines="0 0 1 1; 0.606 0 0.155 1; 0.845 0 0.394 1; 0 0 1 1" fill="freeze" /><g transform="translate(0,0)"><g transform="matrix(1,0,0,1,-163.5,-195)" id="i2"><g id="i3" transform="matrix(1,0,0,1,157.554,196.842)"><path fill="#91aa9f" d="M-7.269,-74.745C-7.269,-86.952,2.627,-96.846,14.833,-96.846C27.039,-96.846,36.934,-86.952,36.934,-74.745C36.934,-74.745,36.934,-69.634,36.934,-69.634C36.934,-69.634,36.934,-19.475,36.934,-19.475C36.934,-19.475,36.934,-48.123,36.934,-48.123C36.934,-48.123,36.934,-60.492,36.934,-60.492C36.934,-73.585,47.548,-84.198,60.641,-84.198C73.734,-84.198,84.348,-73.585,84.348,-60.492C84.348,-60.492,84.348,-56.794,84.348,-56.794C84.348,-56.794,84.348,-5.428,84.348,-5.428C84.348,-5.428,84.348,-28.915,84.348,-28.915C84.348,-28.915,84.348,-40.788,84.348,-40.788C84.348,-53.154,94.372,-63.18,106.738,-63.18C119.103,-63.18,129.128,-53.154,129.128,-40.788C129.128,-40.788,129.128,-37.768,129.128,-37.768C129.128,-37.768,129.128,57.791,129.128,57.791C129.128,66.571,126.934,73.597,123.421,80.621C123.421,80.621,119.91,87.645,119.91,87.645C119.91,87.645,101.909,117.499,100.591,120.134C99.274,122.768,99.384,123.535,99.384,126.06C99.384,126.06,99.384,166.449,99.384,166.449C99.384,166.449,-37.48,166.449,-37.48,166.449C-37.48,166.449,-37.48,136.048,-37.48,136.048C-37.48,134.841,-37.81,133.414,-39.237,131.439C-40.664,129.463,-118.859,11.246,-120.895,7.854C-129.127,-5.866,-112.554,-36.928,-90.493,-20.684C-64.396,-1.469,-54.602,3.571,-54.383,22.889C-54.383,22.889,-54.383,29.694,-54.383,29.694C-54.383,29.694,-54.383,-141.525,-54.383,-141.525C-54.383,-141.525,-54.366,-142.901,-54.366,-142.901C-54.366,-155.906,-43.823,-166.449,-30.817,-166.449C-17.812,-166.449,-7.269,-155.906,-7.269,-142.901C-7.269,-142.901,-7.269,-141.415,-7.269,-141.415C-7.269,-141.415,-7.269,-19.475,-7.269,-19.475C-7.269,-19.475,-7.269,-70.513,-7.269,-70.513" /></g></g></g></g></g></g></g><g mask="url(#i5)" visibility="hidden" id="i10"><animate repeatCount="indefinite" begin="0s" calcMode="discrete" dur="1.64s" values="hidden; visible; visible" keyTimes="0; 0.171; 1" attributeName="visibility" /><animate repeatCount="indefinite" attributeName="opacity" dur="1.64s" begin="0s" fill="freeze" values="1; 1; 0; 0" keyTimes="0; 0.268293; 0.756098; 1" keySplines="0 0 1 1; 0.606 0 0.813 1; 0 0 1 1" calcMode="spline" /><g transform="translate(188.942,172.516) rotate(-34)"><g transform="scale(0.357,0.357)"><animateTransform repeatCount="indefinite" type="scale" attributeName="transform" dur="1.64s" begin="0s" calcMode="spline" values="0.357 0.357; 0.357 0.357; 1.555 1.555; 1.555 1.555" keyTimes="0; 0.268293; 0.756098; 1" keySplines="0 0 1 1; 0.606 0 0.394 1; 0 0 1 1" fill="freeze" /><g transform="translate(37,143.75)"><g id="i8" transform="matrix(1,0,0,1,-37,-143.75)"><ellipse ry="64.414" rx="64.414" cy="0" cx="0" stroke-width="40" stroke="#91aa9f"><animate repeatCount="indefinite" attributeName="stroke-width" dur="1.64s" begin="0s" fill="freeze" values="40; 40; 10; 10" keyTimes="0; 0.268293; 0.756098; 1" keySplines="0 0 1 1; 0.606 0 0.394 1; 0 0 1 1" calcMode="spline" /></ellipse></g></g></g></g></g><g display="none" id="i9"><g transform="translate(329,329)"><animateTransform repeatCount="indefinite" type="translate" attributeName="transform" dur="1.64s" begin="0s" calcMode="spline" values="329 329; 300 271; 300 271; 329 329; 329 329" keyTimes="0; 0.170732; 0.292683; 0.487805; 1" keySplines="0.167 0.165 0.833 0.835; 0 0 1 1; 0.167 0.188 0.833 0.812; 0 0 1 1" fill="freeze" /><g transform="rotate(-22.2)"><animateTransform repeatCount="indefinite" type="rotate" attributeName="transform" dur="1.64s" begin="0s" calcMode="spline" values="-22.2; -34; -34; -22.2; -22.2" keyTimes="0; 0.170732; 0.292683; 0.487805; 1" keySplines="0.167 0 0.833 1; 0.167 0 0.833 1; 0.167 0 0.833 1; 0 0 1 1" fill="freeze" /><g transform="scale(1,1)"><animateTransform repeatCount="indefinite" type="scale" attributeName="transform" dur="1.64s" begin="0s" calcMode="spline" values="1 1; 1 1; 0.954 0.954; 1 1; 1 1" keyTimes="0; 0.146341; 0.243902; 0.341463; 1" keySplines="0 0 1 1; 0.606 0 0.155 1; 0.845 0 0.394 1; 0 0 1 1" fill="freeze" /><g transform="translate(0,0)"><g transform="matrix(1,0,0,1,-163.5,-195)" id="i6"><g id="i3" transform="matrix(1,0,0,1,157.554,196.842)"><path fill="#91aa9f" d="M-7.269,-74.745C-7.269,-86.952,2.627,-96.846,14.833,-96.846C27.039,-96.846,36.934,-86.952,36.934,-74.745C36.934,-74.745,36.934,-69.634,36.934,-69.634C36.934,-69.634,36.934,-19.475,36.934,-19.475C36.934,-19.475,36.934,-48.123,36.934,-48.123C36.934,-48.123,36.934,-60.492,36.934,-60.492C36.934,-73.585,47.548,-84.198,60.641,-84.198C73.734,-84.198,84.348,-73.585,84.348,-60.492C84.348,-60.492,84.348,-56.794,84.348,-56.794C84.348,-56.794,84.348,-5.428,84.348,-5.428C84.348,-5.428,84.348,-28.915,84.348,-28.915C84.348,-28.915,84.348,-40.788,84.348,-40.788C84.348,-53.154,94.372,-63.18,106.738,-63.18C119.103,-63.18,129.128,-53.154,129.128,-40.788C129.128,-40.788,129.128,-37.768,129.128,-37.768C129.128,-37.768,129.128,57.791,129.128,57.791C129.128,66.571,126.934,73.597,123.421,80.621C123.421,80.621,119.91,87.645,119.91,87.645C119.91,87.645,101.909,117.499,100.591,120.134C99.274,122.768,99.384,123.535,99.384,126.06C99.384,126.06,99.384,166.449,99.384,166.449C99.384,166.449,-37.48,166.449,-37.48,166.449C-37.48,166.449,-37.48,136.048,-37.48,136.048C-37.48,134.841,-37.81,133.414,-39.237,131.439C-40.664,129.463,-118.859,11.246,-120.895,7.854C-129.127,-5.866,-112.554,-36.928,-90.493,-20.684C-64.396,-1.469,-54.602,3.571,-54.383,22.889C-54.383,22.889,-54.383,29.694,-54.383,29.694C-54.383,29.694,-54.383,-141.525,-54.383,-141.525C-54.383,-141.525,-54.366,-142.901,-54.366,-142.901C-54.366,-155.906,-43.823,-166.449,-30.817,-166.449C-17.812,-166.449,-7.269,-155.906,-7.269,-142.901C-7.269,-142.901,-7.269,-141.415,-7.269,-141.415C-7.269,-141.415,-7.269,-19.475,-7.269,-19.475C-7.269,-19.475,-7.269,-70.513,-7.269,-70.513" /></g></g></g></g></g></g></g><g id="i9"><g transform="translate(329,329)"><animateTransform repeatCount="indefinite" type="translate" attributeName="transform" dur="1.64s" begin="0s" calcMode="spline" values="329 329; 300 271; 300 271; 329 329; 329 329" keyTimes="0; 0.170732; 0.292683; 0.487805; 1" keySplines="0.167 0.165 0.833 0.835; 0 0 1 1; 0.167 0.188 0.833 0.812; 0 0 1 1" fill="freeze" /><g transform="rotate(-22.2)"><animateTransform repeatCount="indefinite" type="rotate" attributeName="transform" dur="1.64s" begin="0s" calcMode="spline" values="-22.2; -34; -34; -22.2; -22.2" keyTimes="0; 0.170732; 0.292683; 0.487805; 1" keySplines="0.167 0 0.833 1; 0.167 0 0.833 1; 0.167 0 0.833 1; 0 0 1 1" fill="freeze" /><g transform="scale(1,1)"><animateTransform repeatCount="indefinite" type="scale" attributeName="transform" dur="1.64s" begin="0s" calcMode="spline" values="1 1; 1 1; 0.954 0.954; 1 1; 1 1" keyTimes="0; 0.146341; 0.243902; 0.341463; 1" keySplines="0 0 1 1; 0.606 0 0.155 1; 0.845 0 0.394 1; 0 0 1 1" fill="freeze" /><g transform="translate(0,0)"><g transform="matrix(1,0,0,1,-163.5,-195)" id="i11"><g id="i12" transform="matrix(1,0,0,1,157.554,196.842)"><path stroke-linejoin="round" stroke-linecap="round" stroke-width="22" stroke="#91aa9f" d="M-7.269,-74.745C-7.269,-86.952,2.627,-96.846,14.833,-96.846C27.039,-96.846,36.934,-86.952,36.934,-74.745C36.934,-74.745,36.934,-69.634,36.934,-69.634C36.934,-69.634,36.934,-19.475,36.934,-19.475C36.934,-19.475,36.934,-48.123,36.934,-48.123C36.934,-48.123,36.934,-60.492,36.934,-60.492C36.934,-73.585,47.548,-84.198,60.641,-84.198C73.734,-84.198,84.348,-73.585,84.348,-60.492C84.348,-60.492,84.348,-56.794,84.348,-56.794C84.348,-56.794,84.348,-5.428,84.348,-5.428C84.348,-5.428,84.348,-28.915,84.348,-28.915C84.348,-28.915,84.348,-40.788,84.348,-40.788C84.348,-53.154,94.372,-63.18,106.738,-63.18C119.103,-63.18,129.128,-53.154,129.128,-40.788C129.128,-40.788,129.128,-37.768,129.128,-37.768C129.128,-37.768,129.128,57.791,129.128,57.791C129.128,66.571,126.934,73.597,123.421,80.621C123.421,80.621,119.91,87.645,119.91,87.645C119.91,87.645,101.909,117.499,100.591,120.134C99.274,122.768,99.384,123.535,99.384,126.06C99.384,126.06,99.384,166.449,99.384,166.449C99.384,166.449,-37.48,166.449,-37.48,166.449C-37.48,166.449,-37.48,136.048,-37.48,136.048C-37.48,134.841,-37.81,133.414,-39.237,131.439C-40.664,129.463,-118.859,11.246,-120.895,7.854C-129.127,-5.866,-112.554,-36.928,-90.493,-20.684C-64.396,-1.469,-54.602,3.571,-54.383,22.889C-54.383,22.889,-54.383,29.694,-54.383,29.694C-54.383,29.694,-54.383,-141.525,-54.383,-141.525C-54.383,-141.525,-54.366,-142.901,-54.366,-142.901C-54.366,-155.906,-43.823,-166.449,-30.817,-166.449C-17.812,-166.449,-7.269,-155.906,-7.269,-142.901C-7.269,-142.901,-7.269,-141.415,-7.269,-141.415C-7.269,-141.415,-7.269,-19.475,-7.269,-19.475C-7.269,-19.475,-7.269,-70.513,-7.269,-70.513" /></g><g id="i3" transform="matrix(1,0,0,1,158.835,196.842)"><path fill="#91aa9f" fill-rule="evenodd" d="M98.104,177.449C98.104,177.449,-38.762,177.449,-38.762,177.449C-44.837,177.449,-49.762,172.524,-49.762,166.449C-49.762,166.449,-49.762,137.405,-49.762,137.405C-55.643,128.752,-129.898,16.362,-131.608,13.513C-138.847,1.449,-134.943,-17.859,-123.085,-28.649C-112.312,-38.45,-97.816,-38.795,-85.252,-29.543C-82.707,-27.668,-80.318,-25.93,-78.078,-24.301C-73.902,-21.262,-70.094,-18.49,-66.664,-15.825C-66.664,-15.825,-66.664,-141.526,-66.664,-141.526C-66.664,-141.571,-66.664,-141.616,-66.663,-141.661C-66.663,-141.661,-66.647,-142.975,-66.647,-142.975C-66.608,-161.992,-51.124,-177.449,-32.099,-177.449C-13.049,-177.449,2.449,-161.952,2.449,-142.902C2.449,-142.902,2.449,-105.932,2.449,-105.932C5.921,-107.172,9.658,-107.846,13.551,-107.846C25.976,-107.846,36.824,-100.965,42.485,-90.814C47.483,-93.606,53.238,-95.198,59.36,-95.198C74.661,-95.198,87.682,-85.244,92.287,-71.471C96.33,-73.214,100.782,-74.18,105.457,-74.18C123.868,-74.18,138.847,-59.201,138.847,-40.79C138.847,-40.79,138.847,57.791,138.847,57.791C138.847,67.482,136.729,76.041,131.979,85.54C131.979,85.54,128.467,92.563,128.467,92.563C128.337,92.822,128.197,93.076,128.048,93.324C119.656,107.243,110.168,123.116,109.114,125.12C109.11,125.13,109.105,125.14,109.1,125.15C109.101,125.255,109.102,125.364,109.103,125.481C109.103,125.481,109.104,126.059,109.104,126.059C109.104,126.059,109.104,166.449,109.104,166.449C109.104,172.524,104.179,177.449,98.104,177.449ZM-27.762,155.449C-27.762,155.449,87.104,155.449,87.104,155.449C87.104,155.449,87.103,125.557,87.103,125.557C87.091,122.297,87.255,119.646,89.473,115.212C90.819,112.521,103.385,91.624,108.984,82.337C108.984,82.337,112.301,75.701,112.301,75.701C115.487,69.329,116.847,63.972,116.847,57.791C116.847,57.791,116.847,-40.79,116.847,-40.79C116.847,-47.07,111.737,-52.18,105.457,-52.18C99.176,-52.18,94.067,-47.07,94.067,-40.79C94.067,-40.79,94.067,-5.429,94.067,-5.429C94.067,0.646,89.142,5.571,83.067,5.571C76.991,5.571,72.067,0.646,72.067,-5.429C72.067,-5.429,72.067,-60.492,72.067,-60.492C72.067,-67.499,66.366,-73.198,59.36,-73.198C52.353,-73.198,46.653,-67.499,46.653,-60.492C46.653,-60.492,46.653,-19.477,46.653,-19.477C46.653,-13.402,41.728,-8.477,35.653,-8.477C29.577,-8.477,24.653,-13.402,24.653,-19.477C24.653,-19.477,24.653,-74.745,24.653,-74.745C24.653,-80.867,19.672,-85.846,13.551,-85.846C7.43,-85.846,2.449,-80.867,2.449,-74.745C2.449,-74.745,2.449,-19.477,2.449,-19.477C2.449,-13.402,-2.475,-8.477,-8.551,-8.477C-14.626,-8.477,-19.551,-13.402,-19.551,-19.477C-19.551,-19.477,-19.551,-142.902,-19.551,-142.902C-19.551,-149.822,-25.179,-155.449,-32.099,-155.449C-39.018,-155.449,-44.647,-149.822,-44.647,-142.902C-44.647,-142.857,-44.648,-142.81,-44.648,-142.764C-44.648,-142.764,-44.664,-141.453,-44.664,-141.453C-44.664,-141.453,-44.664,29.693,-44.664,29.693C-44.664,35.768,-49.589,40.693,-55.664,40.693C-61.74,40.693,-66.664,35.768,-66.664,29.693C-66.664,29.693,-66.664,22.951,-66.664,22.951C-66.788,12.598,-68.342,9.992,-91.023,-6.512C-93.293,-8.164,-95.716,-9.927,-98.297,-11.827C-103.44,-15.613,-106.133,-14.328,-108.279,-12.377C-112.829,-8.237,-114.28,-0.367,-112.744,2.193C-110.358,6.051,-35.496,119.345,-31.548,125.07C-29.001,128.623,-27.762,132.215,-27.762,136.047C-27.762,136.047,-27.762,155.449,-27.762,155.449Z" /></g></g></g></g></g></g></g><g opacity="0" id="i9"><g transform="translate(329,329)"><animateTransform repeatCount="indefinite" type="translate" attributeName="transform" dur="1.64s" begin="0s" calcMode="spline" values="329 329; 300 271; 300 271; 329 329; 329 329" keyTimes="0; 0.170732; 0.292683; 0.487805; 1" keySplines="0.167 0.165 0.833 0.835; 0 0 1 1; 0.167 0.188 0.833 0.812; 0 0 1 1" fill="freeze" /><g transform="rotate(-22.2)"><animateTransform repeatCount="indefinite" type="rotate" attributeName="transform" dur="1.64s" begin="0s" calcMode="spline" values="-22.2; -34; -34; -22.2; -22.2" keyTimes="0; 0.170732; 0.292683; 0.487805; 1" keySplines="0.167 0 0.833 1; 0.167 0 0.833 1; 0.167 0 0.833 1; 0 0 1 1" fill="freeze" /><g transform="scale(1,1)"><animateTransform repeatCount="indefinite" type="scale" attributeName="transform" dur="1.64s" begin="0s" calcMode="spline" values="1 1; 1 1; 0.954 0.954; 1 1; 1 1" keyTimes="0; 0.146341; 0.243902; 0.341463; 1" keySplines="0 0 1 1; 0.606 0 0.155 1; 0.845 0 0.394 1; 0 0 1 1" fill="freeze" /><g transform="translate(0,0)" /></g></g></g></g></svg>